<?xml version="1.0" standalone="no"?>
<!DOCTYPE svg PUBLIC "-//W3C//DTD SVG 20010904//EN"
 "http://www.w3.org/TR/2001/REC-SVG-20010904/DTD/svg10.dtd">
<svg version="1.0" xmlns="http://www.w3.org/2000/svg"
 width="607.000000pt" height="607.000000pt" viewBox="0 0 607.000000 607.000000"
 preserveAspectRatio="xMidYMid meet">
<metadata>
Created by potrace 1.14, written by Peter Selinger 2001-2017
</metadata>
<g transform="translate(0.000000,607.000000) scale(0.100000,-0.100000)"
fill="#000000" stroke="none">
<path d="M1757 5156 c-4 -10 -13 -16 -21 -13 -10 4 -13 -2 -12 -23 1 -17 -2
-26 -8 -23 -5 4 -7 -1 -3 -10 4 -10 1 -17 -6 -17 -9 0 -9 -2 0 -8 8 -5 9 -13
3 -22 -5 -8 -5 -21 1 -32 7 -12 6 -18 -1 -18 -8 0 -8 -6 0 -20 8 -15 8 -20 -1
-20 -8 0 -7 -5 2 -17 12 -14 12 -16 0 -8 -11 6 -13 4 -8 -7 3 -9 0 -21 -6 -28
-9 -10 -9 -11 3 -5 12 6 13 5 3 -6 -7 -7 -13 -23 -13 -36 0 -13 -5 -23 -11
-23 -8 0 -7 -5 1 -16 11 -12 11 -15 -1 -12 -8 2 -13 -3 -12 -9 2 -7 -2 -13 -8
-13 -5 0 -7 -5 -4 -10 3 -6 0 -13 -9 -16 -9 -3 -12 -12 -9 -21 4 -11 2 -14 -5
-9 -7 4 -12 2 -12 -4 0 -6 -4 -8 -10 -5 -5 3 -10 2 -10 -3 0 -5 -13 -8 -30 -7
-16 1 -30 -3 -30 -9 0 -6 -4 -5 -9 3 -6 9 -11 10 -15 2 -5 -8 -13 -8 -26 -1
-13 7 -21 5 -31 -6 -8 -10 -16 -11 -22 -5 -6 6 -19 4 -35 -7 -21 -14 -24 -14
-17 -2 8 13 6 13 -8 2 -9 -8 -21 -11 -27 -7 -5 3 -10 1 -10 -5 0 -7 -7 -10
-15 -6 -8 3 -15 1 -15 -4 0 -6 -9 -10 -21 -10 -11 0 -17 -4 -14 -10 3 -6 -1
-7 -9 -4 -9 3 -16 1 -16 -5 0 -6 -7 -8 -17 -4 -11 4 -14 3 -9 -5 5 -8 0 -12
-12 -12 -10 0 -31 -11 -45 -24 -17 -15 -28 -20 -31 -13 -2 7 -5 4 -5 -5 -1 -9
-6 -20 -13 -24 -7 -5 -8 -3 -3 7 8 12 6 12 -8 0 -9 -7 -14 -18 -10 -25 4 -6
-1 -5 -11 3 -9 8 -16 10 -15 5 3 -20 -2 -35 -10 -29 -5 3 -12 -4 -16 -15 -3
-11 -11 -20 -16 -20 -6 0 -7 -5 -3 -12 5 -8 2 -9 -10 -5 -9 4 -15 3 -12 -2 8
-12 -19 -33 -29 -23 -5 4 -5 1 -1 -6 4 -7 2 -19 -4 -27 -6 -8 -9 -19 -5 -24 3
-7 0 -8 -10 -5 -11 5 -14 2 -9 -10 4 -10 0 -18 -11 -22 -9 -4 -14 -13 -11 -21
3 -8 2 -12 -3 -9 -8 5 -25 -29 -22 -46 1 -5 -4 -8 -11 -8 -6 0 -9 -3 -6 -6 10
-9 -26 -41 -39 -36 -7 2 -16 -3 -19 -12 -3 -9 -10 -16 -16 -16 -5 0 -6 6 -3
13 4 6 1 5 -7 -3 -13 -15 -31 -22 -55 -23 -7 0 -13 -4 -13 -9 0 -5 -4 -6 -10
-3 -6 3 -10 1 -10 -5 0 -6 -5 -8 -10 -5 -6 3 -10 1 -10 -5 0 -7 -7 -10 -15 -6
-8 3 -15 1 -15 -4 0 -5 -9 -7 -20 -5 -11 2 -23 -1 -26 -7 -5 -7 -2 -8 6 -3 9
6 11 4 5 -4 -4 -7 -16 -11 -26 -8 -11 3 -17 1 -13 -4 3 -5 -4 -9 -15 -9 -11 0
-23 -4 -26 -10 -3 -5 -17 -10 -31 -10 -14 0 -22 -4 -19 -10 4 -6 -1 -7 -11 -3
-13 5 -15 3 -9 -7 5 -9 4 -11 -4 -6 -6 4 -18 2 -26 -4 -11 -9 -15 -9 -15 -1 0
7 -10 2 -22 -9 -12 -11 -28 -18 -34 -16 -6 2 -21 -2 -32 -9 -10 -8 -22 -11
-26 -8 -3 3 -6 1 -6 -5 0 -6 -7 -9 -15 -6 -8 4 -15 1 -15 -4 0 -6 -9 -9 -19
-7 -11 2 -26 -4 -33 -13 -12 -16 -11 -16 7 -2 19 14 19 14 6 -3 -10 -13 -17
-15 -27 -6 -11 9 -14 9 -14 0 0 -6 -11 -16 -25 -21 -14 -5 -25 -15 -25 -22 0
-10 -3 -10 -9 1 -7 11 -10 9 -16 -8 -3 -11 -11 -21 -16 -21 -6 0 -7 6 -3 13 4
6 -4 1 -17 -13 -13 -13 -23 -28 -21 -33 1 -5 -2 -6 -8 -2 -5 3 -10 1 -10 -5 0
-6 -4 -8 -10 -5 -9 5 -15 -15 -11 -37 0 -4 -6 -5 -14 -2 -12 5 -14 -21 -14
-180 1 -153 3 -186 15 -186 8 0 14 -5 14 -11 0 -5 -6 -7 -12 -3 -7 3 0 -6 17
-22 16 -16 33 -28 37 -26 5 1 7 -4 6 -10 -2 -7 3 -12 10 -10 6 1 12 -2 12 -8
0 -5 6 -10 14 -10 8 0 17 -6 19 -12 4 -10 6 -10 6 0 1 10 5 10 17 -2 8 -9 20
-14 25 -11 5 4 9 1 9 -4 0 -6 3 -10 8 -10 21 4 32 -2 26 -13 -5 -8 -2 -9 11
-4 16 6 16 4 4 -11 -7 -10 -10 -15 -6 -12 4 3 28 -14 53 -38 26 -24 51 -40 58
-36 7 4 7 2 -1 -8 -10 -13 -10 -16 2 -16 8 0 15 5 16 11 0 6 4 1 9 -11 7 -16
14 -20 31 -16 13 4 20 2 16 -4 -3 -5 0 -10 8 -10 8 0 15 5 15 11 0 6 5 4 10
-4 9 -13 10 -13 10 0 0 9 3 11 8 5 9 -13 52 -15 52 -2 0 5 8 3 17 -4 11 -10
14 -10 9 -1 -4 7 -1 12 9 12 10 0 14 -5 10 -12 -4 -7 1 -4 9 6 12 15 16 16 16
5 0 -12 2 -12 9 0 7 11 9 11 13 0 4 -12 7 -12 21 0 14 11 17 11 17 0 0 -12 2
-12 9 0 7 11 9 11 14 0 5 -12 7 -12 15 -1 5 8 13 14 17 14 4 0 12 -6 16 -14 7
-10 9 -10 9 0 0 7 15 12 41 12 29 0 38 3 33 13 -4 6 1 4 12 -5 19 -17 21 -17
38 0 11 9 15 11 11 4 -8 -16 26 -13 37 3 5 6 8 5 8 -3 0 -9 5 -10 18 -3 13 7
23 6 30 -1 9 -9 12 -9 12 1 0 11 3 11 17 0 19 -16 23 -16 34 3 6 9 9 10 9 1 0
-7 6 -10 14 -7 8 3 16 1 19 -4 4 -4 24 -7 47 -5 29 2 39 0 34 -9 -4 -7 -3 -8
5 -4 18 11 61 15 55 5 -3 -5 4 -9 16 -9 14 0 19 -4 14 -12 -5 -8 0 -7 11 2 11
9 16 10 11 3 -5 -9 -1 -13 13 -13 10 0 22 -6 24 -12 4 -10 6 -10 6 0 1 8 8 6
23 -7 15 -14 25 -18 33 -11 15 12 39 -12 27 -26 -4 -4 1 -2 11 5 11 9 17 10
17 2 0 -6 11 -11 25 -11 14 0 25 -6 25 -12 0 -9 4 -8 10 2 7 12 10 12 10 1 0
-7 6 -11 15 -7 8 3 15 1 15 -4 0 -5 7 -6 17 -3 9 4 14 2 11 -3 -4 -5 5 -10 18
-10 15 -1 21 2 17 9 -3 6 4 3 16 -5 12 -9 30 -14 41 -11 10 3 21 0 24 -6 5 -8
13 -8 28 0 15 8 19 8 14 0 -4 -6 0 -11 8 -11 9 0 16 6 16 13 0 8 3 7 9 -3 6
-8 8 -17 6 -20 -2 -3 10 -5 26 -4 23 2 29 -1 25 -12 -3 -8 -2 -13 2 -10 13 8
44 -22 36 -35 -4 -7 -3 -10 4 -5 11 7 38 -32 33 -49 -1 -5 4 -14 12 -20 8 -5
16 -14 18 -20 2 -5 8 -9 13 -7 5 2 3 -5 -5 -14 -9 -12 -9 -15 -1 -10 7 4 12 2
12 -8 0 -8 6 -17 13 -19 9 -4 8 -6 -2 -6 -10 -1 -9 -6 5 -18 10 -10 20 -25 22
-33 2 -8 13 -25 24 -37 11 -12 17 -26 14 -31 -3 -6 1 -12 9 -16 8 -3 15 -12
15 -21 0 -8 5 -15 11 -15 5 0 7 -4 4 -10 -3 -5 -1 -10 5 -10 6 0 8 -4 5 -10
-3 -6 -1 -10 5 -10 6 0 9 -4 6 -9 -3 -5 1 -11 9 -15 8 -3 15 -15 15 -26 0 -11
5 -20 10 -20 6 0 10 -7 10 -15 0 -8 5 -15 10 -15 6 0 9 -6 8 -12 -2 -7 3 -12
11 -10 12 3 12 1 0 -14 -8 -10 -9 -15 -3 -11 12 7 29 -19 25 -40 -1 -7 7 -18
18 -24 11 -7 17 -19 13 -27 -4 -11 -1 -13 8 -7 10 6 12 4 7 -8 -3 -9 0 -18 9
-21 8 -3 14 -15 14 -26 0 -11 3 -20 8 -20 4 0 16 -13 27 -28 15 -22 16 -24 2
-13 -15 12 -17 12 -11 -3 3 -9 13 -16 21 -16 13 0 13 -3 3 -16 -11 -12 -11
-15 1 -12 8 2 13 -3 11 -9 -1 -7 2 -13 8 -13 5 0 10 -7 10 -16 0 -8 4 -13 8
-10 4 2 9 -5 9 -16 1 -11 9 -28 18 -38 10 -11 14 -24 9 -31 -4 -8 -3 -10 4 -5
7 4 12 1 12 -8 0 -9 5 -16 10 -16 6 0 10 -9 10 -21 0 -11 4 -17 10 -14 6 3 10
-3 10 -14 0 -11 5 -23 11 -26 6 -4 8 -14 4 -22 -5 -14 -3 -14 12 -2 12 10 15
10 9 1 -4 -7 -2 -19 4 -27 6 -8 9 -19 6 -24 -4 -6 3 -15 14 -21 11 -6 19 -14
18 -18 -4 -16 26 -61 36 -55 6 4 5 0 -2 -9 -11 -14 -10 -18 6 -30 10 -7 18
-21 16 -31 -1 -9 2 -15 7 -11 11 6 29 -37 21 -50 -3 -5 2 -6 12 -3 10 4 16 2
15 -6 -1 -6 -1 -21 0 -32 1 -15 3 -17 10 -7 6 10 10 9 14 -7 3 -14 1 -19 -6
-14 -7 3 -1 -5 12 -20 14 -15 20 -31 15 -38 -5 -9 -2 -10 10 -6 9 4 14 3 11
-2 -3 -5 0 -13 6 -16 5 -4 8 -13 5 -20 -3 -8 4 -17 16 -21 16 -5 18 -8 7 -15
-11 -7 -10 -9 3 -9 10 0 17 -3 16 -7 -4 -14 13 -53 23 -53 5 0 9 -9 9 -20 0
-11 4 -20 9 -20 5 0 12 -13 16 -30 4 -17 13 -30 22 -30 10 0 14 -6 10 -20 -3
-13 2 -25 16 -35 12 -8 18 -15 14 -15 -4 0 2 -10 13 -22 12 -13 16 -24 11 -26
-7 -2 -6 -8 2 -17 7 -7 14 -11 17 -10 3 2 7 -5 7 -16 1 -10 9 -26 17 -35 9 -9
14 -19 11 -24 -3 -4 3 -14 12 -21 12 -10 14 -10 9 -2 -5 10 -1 11 19 3 34 -13
66 -14 46 -1 -11 7 -11 9 0 14 12 4 11 7 -1 16 -12 8 -12 11 -1 11 9 0 12 8 9
25 -3 13 0 26 6 29 7 3 7 5 -1 5 -7 1 -13 6 -13 12 0 5 6 7 13 3 6 -4 4 2 -6
13 -14 16 -15 23 -6 29 8 5 10 3 4 -6 -5 -9 -4 -11 3 -6 8 5 9 13 3 24 -5 9
-7 38 -6 65 2 30 0 45 -7 41 -5 -4 -5 4 2 16 9 18 9 24 0 30 -9 6 -9 9 1 13
10 4 10 6 2 6 -9 1 -10 8 -3 26 6 16 6 26 -1 30 -5 4 -7 15 -4 25 3 10 0 22
-6 26 -8 4 -9 3 -5 -4 5 -8 2 -10 -8 -6 -9 3 -13 11 -9 18 4 6 -1 5 -10 -3
-14 -11 -17 -11 -17 0 0 11 -2 11 -10 -1 -7 -11 -10 -11 -10 -2 0 7 -5 10 -10
7 -6 -4 -18 -1 -27 7 -14 11 -16 11 -9 -2 6 -12 4 -11 -6 1 -7 9 -19 14 -25
12 -7 -3 -13 0 -13 7 0 6 -3 9 -7 7 -5 -3 -13 1 -20 8 -10 11 -10 15 0 18 7 3
2 6 -11 6 -13 1 -20 5 -17 11 3 6 2 10 -4 10 -12 0 -42 60 -35 71 3 5 1 9 -4
9 -6 0 -8 10 -4 22 4 16 2 19 -9 13 -11 -6 -11 -5 -2 5 6 7 9 19 6 28 -4 10
-2 13 5 8 8 -5 10 -2 6 9 -4 8 -1 21 5 29 6 7 8 16 4 19 -3 4 -1 7 5 7 7 0 12
6 12 14 0 7 10 21 23 30 12 9 16 14 8 10 -9 -5 -12 -3 -7 5 4 6 11 9 16 6 5
-3 15 2 24 11 9 8 21 12 28 8 7 -5 9 -2 6 7 -4 9 2 14 17 14 13 0 21 -4 18 -9
-3 -4 1 -12 8 -17 9 -5 10 -9 2 -9 -12 0 -12 -24 0 -36 4 -4 2 -13 -4 -21 -6
-7 -7 -13 -2 -13 5 0 10 -7 10 -15 0 -8 -5 -15 -11 -15 -7 0 -7 -3 -1 -8 10
-7 16 -36 16 -75 0 -10 7 -21 15 -24 7 -3 12 -8 9 -12 -2 -4 2 -8 10 -8 8 0
15 5 15 11 0 7 3 7 8 0 5 -9 11 -8 20 2 10 11 10 14 0 14 -9 0 -9 3 2 10 8 5
11 12 7 16 -4 4 -2 13 4 21 9 10 8 13 -1 13 -10 0 -10 3 0 15 9 11 9 15 1 15
-9 0 -9 5 -1 20 8 14 8 20 0 20 -7 0 -8 6 -2 18 9 19 8 59 -2 69 -3 3 -1 12 5
20 9 10 8 13 0 13 -7 0 -9 5 -5 12 10 15 13 68 5 68 -4 0 -7 9 -7 20 0 11 5
20 11 20 5 0 3 5 -5 10 -8 5 -10 10 -4 10 14 0 13 32 -1 43 -6 4 -5 10 4 16
11 7 12 13 3 23 -9 11 -9 17 0 26 9 9 9 12 0 12 -7 0 -12 9 -12 21 0 11 -4 17
-10 14 -5 -3 -10 -1 -10 5 0 7 -7 9 -15 6 -9 -3 -18 1 -22 10 -5 13 -7 13 -14
2 -6 -10 -9 -8 -9 7 0 15 -3 17 -9 7 -7 -11 -9 -10 -15 3 -3 9 -10 14 -16 10
-5 -3 -17 -1 -27 4 -22 11 -54 24 -68 26 -5 0 -9 7 -7 14 2 9 -3 11 -13 7 -10
-3 -25 3 -38 18 -12 12 -28 21 -34 19 -7 -3 -13 0 -13 7 0 6 -4 8 -10 5 -5 -3
-10 1 -10 10 0 9 -4 14 -9 10 -5 -3 -17 2 -25 11 -9 8 -16 12 -16 8 0 -4 -8 3
-19 14 -10 12 -21 19 -25 15 -3 -3 -6 -1 -6 5 0 7 -15 21 -32 32 -18 11 -26
20 -18 20 13 0 13 2 0 9 -8 6 -17 8 -20 6 -3 -2 -15 14 -27 36 -12 22 -17 36
-11 33 5 -3 3 7 -6 24 -14 27 -14 31 1 36 12 5 14 9 5 18 -15 15 -16 62 -2 53
6 -3 10 -2 10 4 0 5 -6 12 -12 14 -10 4 -10 6 0 6 7 1 10 6 7 11 -3 6 -1 10 5
10 6 0 8 5 5 10 -3 6 -1 10 5 10 6 0 8 5 5 10 -5 9 7 14 26 12 4 -1 6 6 5 15
0 9 9 22 22 29 13 6 23 15 23 20 -1 5 3 9 7 9 14 0 41 32 34 40 -4 4 -1 6 7 3
8 -2 28 10 45 27 17 17 22 20 11 6 l-20 -24 27 19 c15 10 28 23 28 27 0 5 5 5
12 1 6 -4 8 -3 5 3 -4 6 1 17 10 24 14 12 16 12 8 0 -5 -8 6 -5 23 8 18 12 37
19 43 15 8 -5 9 -3 4 6 -6 10 -4 12 9 7 9 -4 15 -3 12 2 -7 11 22 23 35 15 5
-3 9 1 9 8 0 10 3 9 10 -2 6 -9 5 -20 -3 -29 -9 -12 -9 -13 1 -7 11 7 17 -6
12 -29 -8 -37 -4 -67 9 -75 14 -8 14 -9 -1 -10 -15 0 -16 -4 -8 -26 13 -33 13
-37 -2 -28 -10 6 -10 5 -1 -7 9 -11 7 -20 -9 -39 -11 -14 -17 -18 -13 -10 4 8
-1 6 -10 -5 -9 -11 -20 -19 -25 -18 -5 2 -7 -3 -4 -11 3 -7 -2 -16 -11 -20
-10 -3 -15 -13 -12 -20 3 -8 1 -17 -6 -19 -9 -3 -8 -9 3 -22 8 -10 10 -16 4
-12 -7 4 -14 0 -18 -8 -3 -8 -1 -15 5 -15 6 0 5 -8 -2 -21 -6 -12 -7 -19 -1
-16 9 6 37 -41 33 -56 -1 -5 3 -5 9 -2 11 7 41 -25 35 -36 -2 -3 2 -6 10 -6 8
0 12 5 9 11 -3 6 4 0 15 -13 12 -13 27 -21 35 -18 7 3 19 0 25 -6 8 -8 11 -8
11 0 0 7 9 10 20 8 19 -4 22 -1 24 28 1 6 6 15 11 19 6 5 5 8 -4 8 -11 0 -11
3 -1 15 9 11 9 15 1 15 -7 0 -9 5 -4 13 10 16 10 38 1 59 -5 10 -3 18 5 21 9
4 8 8 -3 16 -13 10 -13 11 0 11 13 0 13 2 1 9 -12 8 -12 12 -2 24 8 11 9 16 1
19 -8 2 -8 11 -1 31 7 18 7 26 1 22 -12 -7 -9 23 4 44 5 8 5 12 0 9 -5 -4 -9
27 -9 70 0 43 -4 83 -10 91 -7 11 -7 13 3 7 7 -4 12 -1 12 9 0 10 -5 13 -12 9
-10 -6 -10 -4 -2 7 6 8 10 30 8 49 -1 19 3 41 10 49 8 12 8 13 -2 7 -10 -6
-11 7 -7 59 3 47 2 64 -6 59 -8 -5 -9 -2 -1 12 6 11 7 27 1 42 -8 20 -7 23 7
18 14 -5 15 -4 4 9 -7 8 -10 24 -7 35 3 11 1 23 -5 26 -6 4 -5 10 3 15 12 8
11 11 -1 19 -12 8 -12 10 -1 10 11 0 11 3 1 15 -7 9 -8 15 -2 15 12 0 10 33
-3 42 -7 5 -7 8 0 8 10 0 11 89 1 116 -3 8 -2 13 2 10 4 -2 7 6 7 19 0 15 -5
21 -14 17 -8 -3 -12 -1 -8 5 3 5 0 10 -8 10 -8 0 -15 -3 -15 -6 0 -4 -9 -12
-21 -19 -12 -8 -18 -9 -14 -3 3 6 1 11 -4 11 -6 0 -11 -5 -11 -11 0 -6 -7 -8
-16 -5 -8 3 -13 2 -10 -2 3 -4 -4 -14 -16 -21 -16 -10 -19 -10 -12 1 4 7 -2 5
-13 -4 -11 -10 -27 -18 -36 -18 -9 0 -16 -6 -15 -12 2 -7 -2 -12 -9 -11 -6 2
-15 -6 -18 -17 -4 -11 -13 -20 -21 -20 -8 0 -12 -5 -9 -11 4 -6 -2 -13 -14
-16 -12 -3 -21 -9 -21 -14 0 -5 -14 -16 -30 -24 -17 -9 -28 -20 -25 -26 4 -5
3 -9 -2 -8 -22 4 -34 -2 -27 -13 5 -9 3 -9 -9 1 -14 11 -18 11 -23 -3 -3 -9
-17 -16 -30 -16 -12 0 -28 -8 -33 -17 -8 -14 -11 -15 -11 -3 0 12 -4 10 -15
-4 -9 -12 -15 -15 -15 -7 0 7 -6 11 -15 8 -8 -4 -17 -2 -21 4 -3 5 -14 7 -25
4 -13 -5 -19 -2 -19 10 0 9 -4 14 -8 11 -5 -3 -9 0 -10 7 -1 7 -3 27 -5 45 -2
18 1 36 6 39 6 3 7 1 3 -5 -4 -7 -3 -12 3 -12 5 0 8 14 6 30 -2 17 0 30 5 30
4 0 6 10 2 22 -3 15 -2 19 7 14 14 -9 11 15 -4 27 -6 5 -4 12 6 20 9 6 14 18
12 25 -3 6 0 12 6 12 6 0 8 7 5 15 -4 8 -1 15 5 15 6 0 8 6 5 14 -3 7 2 20 10
29 9 9 16 20 16 26 0 6 9 20 20 31 11 11 18 20 15 20 -3 0 5 11 17 25 11 13
25 22 29 19 5 -3 6 2 3 11 -4 10 -2 15 7 13 8 -2 13 3 12 9 -2 7 0 12 5 11 14
-3 42 14 36 23 -3 5 2 6 10 3 10 -4 18 1 22 10 5 14 9 14 22 4 9 -7 13 -8 10
-3 -3 6 0 16 8 23 8 7 14 10 14 6 0 -3 8 0 17 7 15 12 16 12 8 -1 -7 -12 -5
-12 11 1 10 9 27 15 37 14 9 -2 17 2 17 8 0 7 5 5 10 -3 8 -12 10 -12 10 -1 0
8 7 11 20 8 11 -3 26 1 34 8 7 8 17 11 21 7 5 -4 5 -1 1 6 -4 7 -12 10 -17 7
-5 -4 -9 1 -9 10 0 9 -4 13 -10 10 -5 -3 -10 0 -10 8 0 8 -7 18 -16 21 -8 3
-12 10 -9 16 6 9 -8 14 -28 11 -5 -1 -6 3 -2 9 3 5 1 10 -4 10 -6 0 -11 7 -11
15 0 9 -6 12 -17 8 -10 -4 -14 -2 -10 4 8 12 -25 53 -43 53 -7 0 -10 7 -6 16
3 8 2 13 -2 11 -9 -6 -33 19 -25 27 4 3 -1 6 -10 6 -9 0 -19 5 -23 12 -5 7 -2
9 7 4 8 -5 -4 8 -26 28 -22 20 -40 42 -40 49 -1 6 -7 11 -14 9 -7 -1 -15 7
-18 18 -3 11 -9 17 -14 14 -8 -5 -13 10 -10 29 1 5 -3 6 -9 2 -5 -3 -13 1 -16
9 -3 9 -10 13 -15 10 -5 -3 -6 3 -2 12 5 14 3 16 -12 10 -11 -4 -16 -4 -13 0
4 3 -6 17 -23 31 -16 14 -29 29 -29 34 0 12 -80 89 -92 89 -5 0 -6 5 -3 11 8
12 -27 49 -46 49 -6 0 -8 7 -5 16 3 8 2 13 -2 11 -9 -6 -33 19 -25 27 6 6 -13
10 -30 7 -5 -1 -6 3 -2 9 3 5 1 10 -5 10 -6 0 -8 5 -5 10 3 6 0 10 -8 10 -8 0
-21 8 -28 17 -12 15 -12 16 1 8 8 -4 4 3 -10 17 -14 13 -28 23 -32 21 -7 -4
-12 12 -9 30 0 4 -6 7 -15 7 -8 0 -13 4 -9 9 3 5 -4 12 -15 16 -11 4 -18 11
-15 16 4 5 -5 13 -19 19 -14 5 -26 12 -26 15 0 4 5 3 10 0 6 -3 10 -2 10 4 0
6 -11 13 -25 17 -16 4 -25 13 -25 25 0 10 -7 19 -15 19 -8 0 -15 7 -15 15 0 9
-7 18 -15 21 -8 4 -12 10 -9 15 3 5 -2 9 -10 9 -15 0 -21 12 -17 33 1 5 -3 6
-9 2 -14 -8 -38 17 -32 34 3 8 -1 12 -9 9 -8 -3 -21 4 -30 15 -15 19 -16 19
-22 3z m-509 -886 c2 -5 15 -10 28 -10 13 0 33 -9 43 -19 11 -11 22 -17 25
-13 3 3 6 -2 6 -11 0 -9 8 -21 18 -26 9 -6 12 -11 5 -11 -7 0 -10 -7 -6 -17 4
-11 3 -14 -5 -9 -8 4 -16 -2 -21 -16 -6 -13 -10 -16 -11 -8 0 9 -3 11 -8 5 -7
-9 -17 -13 -52 -20 -8 -1 -14 -8 -12 -14 3 -15 -20 -9 -35 9 -12 13 -12 13 -8
-1 6 -17 -19 -20 -44 -4 -10 5 -12 4 -7 -3 4 -7 5 -12 2 -12 -2 0 -11 -3 -20
-6 -11 -4 -16 -1 -16 11 0 9 -4 14 -9 11 -4 -3 -8 10 -7 28 0 19 5 32 10 29 4
-3 5 4 2 15 -4 11 -2 23 4 27 6 3 8 10 5 15 -3 5 -1 11 5 15 5 3 10 1 10 -6 0
-7 3 -9 6 -6 4 4 1 13 -6 22 -8 10 -9 15 -1 15 6 0 11 6 11 14 0 16 83 13 88
-4z"/>
<path d="M5110 5161 c0 -3 -18 -6 -40 -4 -29 1 -39 -1 -33 -10 4 -7 0 -6 -10
2 -9 7 -17 10 -17 5 0 -5 -24 -10 -52 -12 -29 -2 -57 -7 -63 -11 -5 -4 -21 -8
-34 -9 -13 0 -28 -7 -32 -14 -7 -10 -9 -10 -9 1 0 10 -3 11 -13 2 -8 -6 -17
-8 -20 -4 -4 3 -7 1 -7 -5 0 -7 -10 -12 -22 -12 -40 1 -69 -6 -76 -17 -4 -5
-15 -9 -24 -7 -10 1 -18 -2 -18 -7 0 -6 -4 -8 -9 -4 -5 3 -13 0 -16 -6 -4 -5
-13 -8 -21 -5 -8 3 -14 0 -14 -5 0 -7 -9 -9 -21 -6 -15 4 -19 2 -15 -10 4 -9
1 -13 -6 -10 -7 2 -28 -5 -46 -15 -18 -10 -38 -16 -43 -12 -5 3 -8 0 -7 -6 2
-7 -8 -14 -22 -16 -14 -3 -26 -9 -28 -14 -2 -6 -10 -10 -18 -10 -8 0 -17 -7
-20 -15 -5 -13 -9 -13 -22 -3 -9 7 -13 9 -10 3 3 -5 0 -16 -8 -23 -11 -10 -14
-10 -14 0 0 8 -5 6 -11 -4 -5 -10 -16 -18 -23 -18 -8 0 -17 -7 -20 -16 -3 -9
-12 -14 -18 -12 -7 3 -21 -5 -31 -16 -10 -12 -16 -14 -12 -6 4 10 2 9 -8 -2
-8 -10 -17 -18 -21 -18 -4 0 -16 -9 -28 -20 -12 -10 -26 -16 -32 -13 -6 3 -8
3 -4 -2 7 -7 -43 -55 -57 -55 -4 0 -16 -10 -26 -22 -13 -14 -19 -17 -20 -7 0
8 -4 4 -10 -9 -5 -14 -13 -20 -21 -16 -7 5 -9 2 -5 -8 4 -12 1 -14 -14 -11
-11 3 -19 0 -19 -7 0 -6 -7 -18 -15 -26 -8 -9 -15 -12 -15 -8 0 4 -8 -3 -19
-14 -10 -12 -22 -18 -27 -14 -4 4 -2 -1 5 -11 12 -15 12 -17 -3 -11 -9 3 -16
1 -16 -4 0 -6 -9 -14 -20 -17 -11 -4 -18 -11 -15 -16 4 -5 1 -9 -5 -9 -6 0 -9
-4 -6 -9 3 -5 -2 -8 -12 -7 -9 0 -16 -4 -15 -11 2 -6 -6 -15 -17 -18 -11 -4
-18 -11 -15 -16 4 -5 -1 -9 -9 -9 -9 0 -16 -8 -16 -17 0 -9 -3 -14 -6 -10 -8
7 -34 -17 -34 -32 0 -6 -3 -10 -7 -8 -5 1 -8 -2 -8 -6 0 -5 -13 -15 -28 -23
-15 -8 -25 -19 -22 -24 4 -6 1 -10 -5 -10 -6 0 -8 -6 -4 -12 4 -7 4 -10 -1 -6
-11 11 -36 -12 -28 -26 3 -6 3 -8 -2 -4 -9 8 -70 -50 -62 -59 8 -7 -16 -32
-26 -26 -5 3 -11 -4 -14 -16 -3 -12 -9 -21 -13 -21 -5 0 -12 -9 -15 -20 -4
-11 -11 -18 -16 -15 -5 4 -9 -4 -9 -16 0 -12 -3 -20 -6 -16 -8 8 -34 -18 -34
-33 0 -6 -4 -8 -10 -5 -5 3 -10 -1 -10 -9 0 -9 -6 -16 -14 -16 -8 0 -18 -9
-21 -20 -4 -12 -11 -17 -18 -13 -7 4 -6 -1 2 -11 8 -9 10 -16 5 -15 -21 4 -28
-2 -14 -11 13 -8 13 -10 1 -10 -22 0 20 -29 42 -30 10 0 20 -7 23 -15 4 -8 10
-12 15 -9 5 3 9 0 9 -5 0 -6 7 -11 16 -11 8 0 13 -4 9 -9 -3 -6 4 -8 15 -6 12
2 20 -1 20 -10 0 -7 13 -19 29 -26 17 -8 35 -24 42 -36 7 -12 20 -25 31 -29
10 -3 18 -10 18 -15 0 -6 -6 -7 -12 -4 -7 4 1 -6 17 -22 17 -15 24 -24 15 -18
-14 9 4 -17 38 -53 7 -7 10 -18 7 -23 -4 -5 -1 -9 5 -9 6 0 9 -4 6 -9 -3 -5 1
-11 8 -14 8 -3 15 -14 15 -24 1 -40 5 -53 15 -53 6 0 4 -5 -4 -10 -8 -5 -10
-10 -4 -10 7 0 11 -19 10 -50 0 -28 3 -50 9 -50 5 0 3 -5 -5 -10 -11 -7 -11
-10 -2 -10 8 0 10 -5 6 -12 -5 -7 -7 -25 -6 -41 1 -16 -1 -26 -6 -23 -5 3 -9
-1 -9 -9 0 -8 3 -15 7 -15 4 0 7 -7 7 -15 0 -8 -5 -11 -10 -8 -6 4 -8 -2 -5
-15 4 -13 0 -23 -9 -26 -11 -5 -12 -10 -2 -27 8 -15 8 -19 0 -15 -6 4 -12 0
-12 -8 -3 -39 -27 -88 -39 -81 -6 4 -9 3 -8 -2 4 -15 -13 -53 -22 -48 -4 3
-10 -4 -13 -15 -3 -11 -11 -19 -19 -18 -7 2 -12 -5 -12 -14 2 -16 -8 -22 -29
-19 -4 0 -6 -2 -6 -6 3 -19 -2 -33 -12 -33 -5 0 -7 6 -3 13 4 6 -4 1 -17 -13
-13 -13 -23 -28 -22 -32 2 -4 -4 -5 -12 -2 -8 4 -15 1 -15 -6 0 -6 -4 -8 -10
-5 -5 3 -10 -2 -11 -12 0 -10 -3 -13 -6 -6 -3 9 -11 6 -26 -8 -12 -11 -27 -17
-35 -14 -7 2 -11 1 -8 -4 3 -5 -1 -12 -10 -15 -23 -9 -26 -8 -18 7 6 9 4 9 -8
-1 -13 -10 -16 -9 -21 9 -4 16 -2 19 11 14 13 -5 13 -2 -3 15 -14 15 -15 20
-4 20 11 0 11 2 -1 10 -9 6 -10 10 -3 10 7 0 9 9 4 28 -5 19 -3 31 8 40 9 8
11 11 4 8 -6 -4 -14 -2 -18 4 -3 5 0 10 7 11 7 0 4 4 -7 9 -16 7 -17 9 -3 9
14 1 15 6 8 31 -5 17 -5 30 0 30 4 0 6 10 2 22 -3 14 -1 19 6 14 6 -3 13 3 17
14 4 11 10 18 14 16 9 -6 34 22 44 48 4 9 12 14 18 10 7 -4 9 0 5 14 -4 12 -1
26 9 35 8 9 15 20 14 24 -1 4 0 10 1 13 7 19 5 50 -4 50 -8 0 -8 3 -1 8 13 9
15 92 3 92 -5 0 -8 11 -6 24 3 25 -19 59 -33 50 -5 -3 -6 2 -3 10 3 9 1 16 -6
16 -6 0 -8 5 -5 10 3 6 -1 10 -9 10 -9 0 -16 5 -16 10 0 6 -7 10 -15 10 -8 0
-15 5 -15 10 0 6 -7 10 -15 10 -8 0 -15 6 -15 13 0 8 -4 7 -10 -3 -6 -10 -10
-11 -10 -2 0 17 -32 15 -56 -4 -10 -8 -13 -13 -6 -9 6 3 12 1 12 -4 0 -6 -5
-11 -12 -11 -9 0 -9 -3 0 -12 7 -7 8 -17 2 -29 -7 -11 -7 -20 0 -24 7 -4 6
-13 -1 -27 -8 -15 -8 -19 0 -14 8 5 8 0 1 -18 -5 -14 -6 -28 -1 -30 9 -6 8
-36 -2 -53 -4 -6 -3 -14 2 -17 10 -7 9 -25 -2 -43 -5 -8 -3 -13 5 -13 8 0 9
-3 3 -8 -12 -8 -13 -27 -3 -38 4 -4 3 -13 -3 -21 -9 -10 -8 -13 2 -13 11 0 11
-2 -1 -10 -13 -9 -13 -10 0 -10 13 0 13 -1 0 -10 -11 -7 -11 -10 -2 -10 10 0
10 -5 1 -21 -8 -16 -8 -20 1 -14 9 6 9 3 1 -13 -6 -12 -7 -23 -3 -26 10 -6 9
-36 -1 -53 -4 -6 -3 -14 1 -17 10 -6 8 -48 -2 -65 -4 -5 -1 -13 5 -17 8 -4 7
-9 -2 -15 -12 -8 -12 -10 0 -18 11 -7 11 -9 0 -14 -12 -5 -12 -6 0 -6 11 -1
11 -4 1 -16 -10 -12 -10 -15 0 -15 10 0 10 -3 0 -15 -10 -12 -10 -15 1 -15 12
0 12 -2 0 -9 -11 -7 -11 -9 0 -13 12 -4 12 -7 0 -21 -7 -10 -9 -17 -4 -17 5 0
9 -9 9 -20 0 -11 -4 -20 -9 -20 -5 0 -4 -6 2 -14 9 -11 9 -15 -1 -19 -10 -4
-10 -6 0 -6 6 -1 12 -6 12 -12 0 -5 -3 -8 -8 -5 -10 6 -8 -56 2 -72 4 -7 2
-12 -4 -12 -7 0 -8 -5 -3 -12 11 -18 10 -32 -2 -40 -6 -5 -5 -8 3 -8 9 0 10
-6 4 -17 -8 -17 -8 -31 -2 -50 6 -20 4 -39 -5 -45 -6 -5 -5 -8 3 -8 9 0 10 -5
3 -18 -7 -13 -6 -23 1 -30 9 -9 9 -12 -1 -12 -7 0 -9 -5 -4 -12 11 -18 10 -32
-2 -40 -6 -5 -3 -8 7 -8 11 0 16 -6 13 -20 -3 -17 -1 -19 16 -10 11 6 19 7 19
1 0 -5 13 -8 30 -7 18 1 32 -4 35 -12 4 -11 8 -12 20 -2 12 10 15 10 15 0 0
-8 3 -10 7 -7 3 4 17 0 31 -9 13 -9 21 -11 17 -4 -5 8 -1 8 13 -1 12 -7 18
-17 16 -21 -3 -4 4 -8 15 -8 12 0 21 -4 21 -10 0 -5 7 -10 16 -10 9 0 18 -9
21 -20 3 -11 9 -18 13 -15 8 5 24 -24 22 -38 -1 -4 4 -6 10 -5 7 2 13 -6 13
-17 1 -11 6 -19 12 -18 12 3 10 -28 -3 -48 -3 -6 0 -15 7 -20 12 -8 12 -11 -1
-20 -11 -7 -12 -12 -3 -15 7 -3 9 -12 6 -20 -3 -7 -10 -11 -17 -7 -6 4 -5 -1
3 -10 9 -12 10 -17 2 -17 -7 0 -9 -5 -5 -12 4 -6 0 -16 -8 -22 -19 -14 -33
-50 -15 -40 6 4 2 -3 -10 -15 -13 -12 -23 -26 -23 -32 0 -6 -4 -8 -9 -5 -5 3
-12 -1 -15 -10 -3 -8 -11 -12 -16 -9 -6 4 -10 3 -9 -2 4 -22 -2 -32 -16 -27
-8 4 -15 1 -15 -7 0 -7 -3 -9 -7 -6 -3 4 -12 -1 -19 -11 -10 -13 -13 -14 -14
-3 0 11 -4 10 -16 -5 -8 -10 -13 -13 -9 -6 3 6 1 12 -4 12 -6 0 -11 -4 -11 -8
0 -10 -36 -9 -46 0 -3 4 -13 4 -22 1 -11 -3 -13 -2 -6 4 6 4 11 25 10 46 0 20
4 37 9 37 6 0 5 4 -2 8 -9 6 -8 15 4 40 8 17 19 29 23 27 5 -3 11 4 15 15 3
11 11 20 17 20 5 0 7 7 4 16 -3 8 -2 12 4 9 6 -3 10 1 10 10 0 10 -5 13 -12 9
-10 -6 -10 -4 0 8 11 14 10 18 -5 27 -10 6 -14 11 -10 11 4 0 2 6 -5 14 -7 8
-16 12 -20 9 -5 -2 -8 4 -9 14 0 11 -3 13 -6 5 -4 -10 -9 -9 -20 5 -14 17 -14
17 -8 -1 6 -19 5 -19 -13 -3 -18 16 -20 16 -33 1 -8 -10 -13 -26 -11 -37 3
-13 0 -17 -9 -12 -8 6 -10 4 -4 -4 4 -7 9 -28 11 -47 2 -25 0 -33 -9 -27 -7 4
-4 -6 7 -21 10 -16 13 -25 7 -22 -14 9 -11 -93 3 -113 8 -11 8 -13 -1 -7 -9 5
-13 -1 -13 -19 0 -18 4 -24 13 -19 9 5 9 4 0 -6 -6 -7 -9 -19 -6 -28 5 -11 2
-13 -8 -7 -11 6 -12 5 -1 -6 6 -7 12 -17 12 -22 0 -4 -6 -5 -12 -1 -10 6 -10
5 -1 -8 7 -8 10 -18 6 -21 -3 -4 0 -13 6 -21 9 -11 9 -16 0 -22 -8 -5 -9 -3
-4 6 5 9 4 11 -3 6 -7 -4 -9 -14 -4 -24 4 -9 7 -30 6 -47 -1 -16 4 -36 10 -44
8 -12 8 -13 -2 -7 -9 5 -12 -1 -10 -26 1 -18 6 -39 11 -46 7 -9 6 -11 -7 -6
-14 5 -15 3 -7 -19 5 -14 7 -28 4 -31 -3 -3 0 -12 7 -21 11 -13 10 -14 -5 -9
-12 5 -16 4 -12 -4 12 -19 16 -92 5 -92 -6 0 -5 -6 2 -15 10 -12 10 -15 -1
-15 -9 -1 -8 -5 5 -15 17 -13 17 -15 3 -15 -13 0 -15 -5 -9 -23 4 -12 7 -46 6
-76 -1 -35 3 -60 12 -69 11 -11 14 -11 14 0 0 10 2 10 9 -1 8 -12 12 -12 24
-2 10 8 17 9 22 2 4 -7 15 -5 31 5 13 9 22 19 19 22 -3 3 4 11 15 19 11 8 20
23 20 34 0 12 4 17 11 13 7 -4 10 -1 7 7 -2 7 6 23 19 35 14 13 25 26 25 31 1
19 11 33 19 28 4 -3 6 4 4 15 -2 11 0 18 5 15 5 -3 11 4 15 15 3 11 11 20 16
20 6 0 7 5 4 10 -3 6 -1 10 5 10 6 0 8 5 5 10 -3 5 -1 10 4 10 6 0 11 7 11 16
0 8 5 12 10 9 6 -3 10 1 10 9 0 8 10 25 23 37 12 12 15 19 7 15 -8 -4 -4 2 9
13 14 13 18 21 10 21 -8 1 -3 7 11 15 14 8 19 14 11 15 -9 0 -6 7 9 20 13 11
19 20 14 20 -5 0 -1 5 9 11 9 6 15 14 12 20 -4 5 -1 9 4 9 6 0 11 6 11 14 0 8
5 18 12 22 7 5 8 3 3 -6 -5 -9 -4 -11 4 -6 9 6 9 12 -1 24 -7 10 -9 14 -4 10
11 -9 26 8 51 56 11 21 25 40 32 43 6 3 9 12 6 20 -4 10 -2 14 5 9 10 -6 28
30 24 47 -1 5 2 6 7 3 8 -5 14 4 23 32 4 15 23 30 33 24 6 -3 7 -2 3 3 -4 4 1
19 12 33 11 13 18 28 15 32 -3 4 2 10 10 14 8 3 15 13 15 21 0 10 5 13 12 9 6
-4 8 -3 5 3 -4 6 5 23 18 39 14 16 25 35 25 42 0 7 4 10 10 7 6 -4 7 1 3 11
-5 13 -3 15 7 9 10 -6 12 -3 8 13 -4 12 -2 19 3 16 5 -3 12 2 15 10 3 9 11 13
18 9 6 -4 5 1 -3 10 -12 15 -11 17 3 17 10 0 14 5 11 10 -3 6 0 13 9 16 9 3
12 12 9 21 -4 10 -2 14 4 10 6 -4 16 6 22 23 5 17 15 30 21 30 6 0 9 4 5 9 -3
6 1 13 9 18 8 4 16 13 18 18 2 6 7 9 11 7 5 -1 6 2 3 7 -8 12 35 92 46 85 5
-3 7 -2 6 3 -1 4 4 19 12 33 7 14 13 27 13 30 -1 3 1 7 4 10 4 3 3 -1 -1 -7
-4 -7 -2 -13 3 -13 6 0 11 9 11 20 0 11 4 20 9 20 5 0 11 9 14 21 4 13 10 18
18 13 8 -4 10 -3 5 4 -4 7 -1 12 6 12 10 0 10 2 -1 9 -11 7 -9 10 8 16 19 6
26 17 22 38 -1 5 2 7 6 4 10 -5 43 29 35 37 -3 3 2 6 11 6 9 0 17 7 17 16 0 9
5 12 12 8 7 -5 9 -2 5 9 -4 11 -2 14 9 10 8 -3 14 1 14 11 0 9 6 15 13 14 6
-2 11 3 9 11 -2 9 3 11 15 7 9 -4 14 -4 11 0 -10 9 64 74 86 74 11 0 16 5 13
14 -4 9 2 12 19 10 13 -1 22 1 19 6 -3 4 6 11 20 14 14 4 25 11 25 17 0 6 5 7
10 4 6 -3 10 -2 10 4 0 6 7 7 17 4 10 -4 14 -2 10 4 -4 6 0 14 9 17 10 4 13 2
8 -7 -5 -7 0 -6 10 3 10 8 24 15 30 16 27 3 55 17 50 25 -3 5 7 4 21 -1 19 -7
24 -7 19 2 -5 8 -2 9 9 5 10 -3 17 -3 17 2 0 4 10 7 23 6 12 -1 28 2 35 8 8 6
17 5 29 -4 14 -12 16 -12 11 1 -4 12 3 15 33 16 21 0 36 -4 32 -9 -3 -5 2 -5
13 0 11 5 26 9 34 8 8 -1 21 4 29 9 11 8 13 8 7 -1 -4 -7 -3 -13 1 -13 5 0 15
6 22 13 11 10 13 10 7 0 -5 -9 0 -13 14 -13 14 0 19 4 14 13 -6 9 -4 9 8 -1
12 -9 18 -10 23 -2 5 8 11 7 22 -1 12 -10 16 -10 24 2 6 9 9 10 9 2 0 -15 81
-13 92 2 5 6 8 5 8 -2 0 -7 5 -13 11 -13 5 0 7 6 3 13 -5 8 -2 8 9 -2 11 -9
21 -10 30 -4 6 5 22 8 35 7 12 0 22 2 22 6 0 4 9 10 20 13 11 3 18 1 14 -4 -3
-5 2 -6 10 -3 9 3 16 10 16 15 0 5 3 9 8 8 16 -2 52 14 52 24 0 6 3 7 7 4 3
-4 12 1 20 11 10 11 12 12 8 2 -4 -10 -2 -9 8 2 8 10 17 15 20 11 4 -3 9 2 13
11 3 9 10 13 15 10 5 -3 9 0 9 5 0 6 7 11 15 11 14 0 20 12 16 33 -1 5 3 6 9
2 5 -3 10 -1 10 5 0 6 4 9 9 6 4 -3 13 6 19 19 7 14 20 25 29 26 11 0 13 3 5
6 -10 4 -8 9 5 21 10 10 19 23 21 31 1 7 9 20 17 28 9 8 13 19 10 24 -4 5 -1
9 4 9 6 0 10 3 10 8 -4 21 2 43 10 38 4 -3 8 4 7 17 -1 14 4 21 13 19 12 -3
12 0 2 12 -9 10 -9 16 -1 21 7 4 10 18 7 31 -2 13 0 24 4 24 5 0 11 11 15 25
6 23 15 30 37 26 5 -1 6 3 2 9 -3 5 -1 10 4 10 6 0 11 7 11 15 0 9 6 12 18 8
9 -3 14 -2 10 2 -5 5 6 17 23 27 25 15 29 21 19 33 -10 12 -10 15 0 15 9 0 7
8 -5 26 -9 15 -12 23 -6 20 18 -12 12 1 -14 30 -13 14 -22 30 -19 35 3 5 -3 6
-12 2 -12 -4 -15 -3 -10 5 4 8 -2 16 -16 21 -13 6 -17 10 -10 10 7 1 -1 14
-18 31 -16 16 -30 32 -30 36 0 3 -19 25 -42 47 -24 22 -36 36 -28 31 9 -5 5 1
-8 12 -16 15 -22 26 -16 35 6 11 3 11 -12 -1 -10 -8 -16 -10 -12 -6 4 5 0 15
-10 23 -9 8 -11 12 -4 8 6 -3 12 -2 12 4 0 5 -9 13 -21 16 -11 4 -18 9 -15 12
3 3 -1 12 -9 19 -8 8 -12 24 -10 35 4 18 2 19 -12 7 -9 -7 -14 -8 -10 -2 4 7
-5 28 -18 49 -14 20 -21 34 -15 30 5 -3 10 -1 10 4 0 6 -7 11 -16 11 -8 0 -12
5 -9 10 3 6 1 10 -5 10 -6 0 -9 4 -6 9 3 5 -1 11 -9 15 -8 3 -15 13 -15 21 0
10 -5 13 -11 9 -7 -4 -10 -1 -7 7 5 16 -18 43 -31 35 -5 -3 -7 3 -4 14 3 12
-1 22 -11 26 -9 3 -16 13 -16 21 0 9 -6 13 -14 10 -10 -4 -14 0 -11 14 3 17
-6 24 -27 20 -5 0 -8 6 -8 15 0 8 -4 13 -9 9 -6 -3 -8 3 -6 14 3 15 0 18 -12
14 -12 -5 -15 -2 -10 10 4 11 2 14 -9 10 -8 -3 -14 1 -14 9 0 8 -10 23 -22 34
l-23 19 20 -25 20 -25 -28 25 c-16 14 -25 30 -22 38 5 12 3 13 -10 2 -9 -7
-15 -9 -13 -4 3 11 -49 64 -56 56 -3 -3 -6 0 -6 6 0 7 -7 12 -16 12 -8 0 -12
5 -9 10 3 6 -3 10 -15 10 -12 0 -18 5 -15 10 3 6 -1 10 -10 10 -10 0 -13 5 -9
12 5 8 2 9 -9 5 -10 -3 -17 -2 -17 4 0 6 -5 7 -10 4 -6 -4 -9 -1 -8 7 2 7 -3
12 -9 10 -7 -1 -13 5 -13 14 0 11 -5 14 -17 10 -10 -4 -14 -4 -11 0 4 4 2 16
-4 28 -10 20 -10 20 7 6 17 -14 17 -14 7 7 -14 25 -15 36 -4 30 4 -3 7 20 7
51 -1 32 3 63 8 70 6 8 5 12 -4 12 -10 1 -9 5 4 14 16 13 16 14 1 20 -15 6
-15 8 0 24 12 14 13 21 4 30 -9 9 -9 12 1 12 11 0 11 3 1 15 -10 12 -10 15 0
15 7 0 10 8 7 20 -3 11 0 20 6 20 7 0 5 5 -3 10 -12 8 -12 10 -1 10 11 0 11 3
0 17 -10 11 -10 14 -1 9 6 -4 12 -3 12 1 0 5 -6 15 -12 22 -11 11 -10 12 2 6
13 -7 13 -6 2 7 -13 17 -52 31 -52 19z m311 -1161 c0 9 2 11 5 3 3 -7 11 -10
19 -7 7 3 16 0 20 -6 5 -8 11 -8 20 0 9 7 16 6 25 -5 11 -13 15 -13 21 -3 7
11 9 11 9 0 0 -7 5 -10 10 -7 6 3 10 1 10 -4 0 -6 -6 -11 -12 -12 -10 0 -10
-2 -1 -5 7 -3 9 -12 6 -21 -5 -12 -3 -14 8 -8 11 6 12 5 2 -6 -7 -7 -13 -26
-13 -42 0 -15 -4 -26 -9 -22 -6 3 -8 -4 -6 -15 2 -11 -1 -20 -6 -20 -6 0 -7
-5 -4 -10 3 -6 -1 -13 -9 -16 -9 -3 -14 -10 -11 -14 3 -4 -2 -10 -10 -13 -14
-6 -51 25 -90 75 -11 14 -24 23 -30 20 -5 -3 -3 3 5 13 12 15 12 17 1 10 -11
-6 -13 -3 -9 13 4 12 3 20 -1 18 -4 -3 -12 4 -19 14 -7 12 -8 21 -2 25 6 4 8
11 5 16 -4 5 3 9 15 9 11 0 23 7 27 16 5 13 7 13 14 2 7 -10 9 -10 10 2z
m-2074 -2618 c26 -26 40 -62 23 -62 -4 0 -7 -12 -6 -27 1 -22 -3 -27 -18 -25
-11 2 -15 -1 -11 -7 3 -6 -1 -11 -10 -11 -11 0 -15 5 -11 15 3 10 -1 15 -12
16 -11 0 -12 2 -4 6 10 4 10 8 0 21 -11 14 -10 15 6 9 14 -6 16 -4 9 5 -6 7
-9 23 -8 36 1 12 -2 22 -7 22 -7 0 11 28 19 30 1 0 15 -12 30 -28z"/>
<path d="M3057 5033 c-4 -3 1 -15 10 -25 14 -15 14 -19 3 -16 -8 2 -14 -3 -12
-9 1 -7 -4 -13 -10 -13 -9 0 -8 -4 2 -10 12 -8 12 -10 1 -10 -8 0 -11 -3 -8
-7 4 -3 2 -12 -3 -19 -6 -6 -10 -16 -9 -20 4 -26 -2 -45 -13 -38 -10 6 -10 4
0 -8 9 -11 10 -18 2 -23 -5 -3 -10 -17 -10 -30 0 -13 -5 -27 -11 -31 -8 -4 -7
-9 2 -15 11 -7 9 -9 -6 -9 -17 0 -17 -2 -5 -10 8 -5 10 -10 4 -10 -6 0 -11 -6
-12 -12 0 -7 -3 -24 -7 -38 -3 -14 -7 -29 -8 -35 -2 -5 -7 -16 -12 -24 -5 -10
-4 -16 3 -19 6 -2 2 -12 -10 -24 -13 -13 -17 -23 -10 -26 6 -2 8 -10 5 -18 -3
-7 -10 -11 -17 -7 -6 4 -6 0 2 -9 7 -9 9 -18 5 -21 -13 -8 -55 12 -48 23 4 6
1 9 -7 8 -7 -2 -12 3 -10 10 1 8 -7 16 -19 19 -16 4 -17 8 -7 14 10 7 9 9 -4
9 -12 0 -15 5 -11 15 3 9 2 15 -3 14 -20 -3 -35 2 -29 10 3 5 -6 21 -20 35
-17 17 -21 26 -12 30 7 4 2 4 -10 2 -12 -2 -22 -1 -21 3 3 27 -4 40 -19 34
-12 -5 -14 -3 -8 7 5 9 4 11 -4 6 -9 -6 -9 -11 0 -22 9 -11 9 -14 -1 -14 -9 0
-10 -3 -1 -14 6 -7 9 -21 5 -30 -3 -9 -1 -16 6 -16 6 0 8 5 4 12 -5 7 -3 8 5
3 9 -5 10 -10 2 -18 -7 -7 -7 -15 1 -25 9 -10 8 -16 -3 -23 -10 -6 -10 -9 -1
-9 7 0 12 -13 12 -31 0 -21 4 -28 13 -23 9 6 9 4 -1 -8 -7 -9 -9 -19 -5 -21 5
-3 10 -20 11 -38 1 -18 8 -39 15 -48 10 -12 9 -13 -3 -6 -12 6 -13 5 -2 -6 6
-7 12 -17 12 -22 0 -4 -6 -5 -12 -2 -7 4 -6 1 2 -7 8 -7 15 -25 14 -40 -1 -16
4 -28 10 -28 6 0 4 -5 -4 -10 -11 -7 -11 -10 -2 -10 7 0 12 -8 11 -17 -3 -33
1 -43 16 -43 8 0 15 -5 15 -11 0 -8 5 -8 15 1 12 10 15 10 15 0 0 -10 4 -10
16 1 13 10 17 10 23 0 7 -10 13 -10 30 -2 16 9 21 9 21 0 0 -8 5 -7 17 2 15
12 16 12 8 -1 -8 -13 -7 -13 8 -1 14 11 17 11 17 0 0 -12 2 -12 9 0 7 11 9 11
14 0 4 -11 6 -11 6 1 1 13 2 13 11 0 9 -13 10 -13 10 0 0 13 1 13 10 0 9 -13
10 -13 10 0 0 13 1 13 10 0 9 -13 11 -13 20 0 8 12 11 13 19 1 7 -11 9 -11 14
0 5 12 6 12 6 0 1 -11 4 -11 18 0 12 11 17 11 20 2 3 -9 12 -9 29 -2 33 12 37
11 28 -3 -6 -10 -4 -10 7 -3 8 6 32 10 54 10 48 0 80 27 79 67 0 16 3 28 7 28
4 0 10 7 13 16 3 8 2 12 -4 9 -6 -3 -7 1 -4 9 3 9 11 13 18 9 6 -4 4 2 -4 12
-9 11 -10 16 -2 11 11 -7 13 -4 16 43 1 8 7 16 14 19 10 3 10 7 1 19 -10 11
-10 14 2 11 8 -2 13 3 11 11 -1 7 2 19 9 27 6 7 8 18 4 24 -3 5 -2 10 3 10 12
0 33 56 25 64 -3 3 -1 12 5 19 7 8 9 17 5 20 -3 4 -1 7 6 7 9 0 12 9 9 25 -3
13 -1 22 3 19 5 -3 9 2 9 11 0 10 5 13 13 9 7 -5 6 -1 -2 10 -14 16 -16 17
-27 1 -7 -9 -15 -16 -18 -16 -17 2 -17 0 -5 -16 11 -13 11 -15 1 -9 -8 5 -20
0 -31 -13 -10 -11 -22 -17 -26 -13 -5 4 -5 -1 -2 -10 6 -17 -3 -23 -26 -19 -5
1 -6 -3 -2 -8 7 -13 -45 -72 -56 -65 -8 5 -13 -10 -10 -29 0 -4 -5 -6 -11 -5
-7 2 -12 -3 -10 -10 1 -6 -1 -11 -5 -11 -21 3 -33 -2 -28 -12 4 -6 -2 -5 -14
2 -14 10 -17 15 -8 21 11 7 3 12 -15 9 -4 0 -5 5 -2 13 3 8 0 17 -5 21 -6 3
-8 12 -4 18 12 19 12 38 1 30 -7 -4 -9 2 -6 15 4 12 3 20 -2 17 -4 -3 -10 2
-13 9 -3 8 -1 17 6 20 9 3 9 5 0 5 -7 1 -13 12 -13 26 0 14 -5 25 -11 25 -5 0
-8 4 -4 9 3 5 1 13 -5 16 -6 4 -8 16 -5 26 4 11 1 26 -5 34 -6 8 -8 20 -4 26
5 8 3 9 -6 4 -10 -6 -12 -4 -7 8 3 10 2 17 -4 17 -6 0 -7 5 -4 11 4 5 -1 20
-12 31 -12 14 -13 19 -3 13 9 -5 7 1 -5 15 -11 13 -14 20 -7 16 6 -4 12 -2 12
3 0 6 -5 11 -11 11 -6 0 -8 9 -4 21 5 16 4 19 -6 14 -9 -6 -11 -3 -6 8 5 13 1
17 -14 17 -11 0 -17 5 -14 10 7 11 2 13 -8 3z"/>
<path d="M2380 4506 c0 -2 8 -10 18 -17 15 -13 16 -12 3 4 -13 16 -21 21 -21
13z"/>
<path d="M2591 3789 c-1 -9 -9 -23 -18 -30 -17 -13 -17 -13 -3 6 14 19 14 19
-3 6 -10 -8 -16 -20 -13 -28 3 -7 0 -13 -6 -13 -6 0 -5 -6 3 -17 10 -11 10
-14 2 -9 -7 4 -13 3 -13 -1 0 -5 6 -15 13 -22 9 -11 9 -12 0 -7 -9 5 -11 2 -7
-8 3 -9 10 -14 14 -11 5 3 12 -4 15 -16 6 -17 9 -19 16 -8 7 12 9 12 9 0 0 -8
3 -11 7 -8 3 4 12 2 19 -4 10 -9 15 -7 20 5 3 9 10 16 16 16 5 0 6 -6 2 -12
-5 -9 -2 -8 10 1 9 8 15 20 12 28 -3 8 -1 11 4 8 11 -7 11 -6 14 43 1 23 -4
38 -16 46 -10 7 -15 16 -10 21 4 4 -1 5 -10 2 -13 -4 -18 -1 -19 11 0 10 -3
12 -6 5 -2 -7 -9 -13 -14 -13 -6 0 -7 6 -3 13 6 9 4 9 -8 -1 -13 -10 -17 -10
-21 0 -4 9 -6 8 -6 -3z"/>
</g>
</svg>
